<svg width="24" height="24" viewBox="0 0 24 24" fill="none" xmlns="http://www.w3.org/2000/svg">
<path d="M7 9H7.01" stroke="#007DA5" stroke-width="2" stroke-linecap="round" stroke-linejoin="round"/>
<path d="M16.75 12H22L18.5 19L15.41 14.68" stroke="#007DA5" stroke-width="2" stroke-linecap="round" stroke-linejoin="round"/>
<path d="M18 9.50004L14 17.5L3.61002 12.3C2.92035 11.9527 2.39637 11.3462 2.15274 10.6134C1.90911 9.88067 1.96566 9.08122 2.31002 8.39004L3.69002 5.60004C3.86202 5.25726 4.09986 4.95172 4.38996 4.70087C4.68005 4.45002 5.01673 4.25878 5.38074 4.13806C5.74476 4.01734 6.12899 3.96951 6.51149 3.9973C6.894 4.02509 7.26728 4.12797 7.61002 4.30004L18 9.50004Z" stroke="#007DA5" stroke-width="2" stroke-linecap="round" stroke-linejoin="round"/>
<path d="M2 19H5.76C6.13273 19.0026 6.49877 18.901 6.81682 18.7066C7.13487 18.5122 7.39228 18.2329 7.56 17.9L9 15" stroke="#007DA5" stroke-width="2" stroke-linecap="round" stroke-linejoin="round"/>
<path d="M2 21V17" stroke="#007DA5" stroke-width="2" stroke-linecap="round" stroke-linejoin="round"/>
</svg>
