<svg width="72" height="50" viewBox="0 0 72 50" fill="none" xmlns="http://www.w3.org/2000/svg">
<g clip-path="url(#clip0_47_480)">
<path d="M70.4954 7.80766C69.6674 4.73428 67.2279 2.31411 64.1299 1.49274C58.5151 3.8147e-06 36 0 36 0C36 0 13.485 3.8147e-06 7.87005 1.49274C4.77229 2.31411 2.33246 4.73428 1.50453 7.80766C0 13.3779 0 25 0 25C0 25 0 36.6219 1.50453 42.1927C2.33246 45.2657 4.77229 47.6859 7.87005 48.5076C13.485 50 36 50 36 50C36 50 58.5151 50 64.1299 48.5076C67.2279 47.6859 69.6674 45.2657 70.4954 42.1927C72 36.6219 72 25 72 25C72 25 72 13.3779 70.4954 7.80766Z" fill="#ED1D24"/>
<path d="M28.6364 35.5519L47.4545 25.0005L28.6364 14.448V35.5519Z" fill="white"/>
</g>
<defs>
<clipPath id="clip0_47_480">
<rect width="72" height="50" fill="white"/>
</clipPath>
</defs>
</svg>
